<svg width="1248" height="340" viewBox="0 0 1248 340" fill="none" xmlns="http://www.w3.org/2000/svg">
<rect x="180" y="180" width="160" height="160" rx="5" fill="white"/>
<rect width="160" height="160" rx="5" fill="white"/>
<rect y="180" width="160" height="160" rx="5" fill="white"/>
<rect x="180" width="40" height="160" rx="5" fill="white"/>
<rect x="235" width="44" height="160" rx="5" fill="white"/>
<rect x="294" width="45" height="160" rx="5" fill="white"/>
<path d="M468.207 122.955V217.5H448.217V122.955H468.207ZM563.733 122.955V217.5H546.468L505.335 157.994H504.642V217.5H484.653V122.955H502.195L543.005 182.415H543.836V122.955H563.733ZM597.33 122.955L620.181 194.787H621.058L643.956 122.955H666.115L633.523 217.5H607.763L575.124 122.955H597.33ZM677.495 217.5V122.955H741.202V139.435H697.484V161.964H737.924V178.445H697.484V201.019H741.387V217.5H677.495ZM836.175 122.955V217.5H818.909L777.776 157.994H777.084V217.5H757.094V122.955H774.637L815.447 182.415H816.278V122.955H836.175ZM849.089 139.435V122.955H926.738V139.435H897.793V217.5H878.034V139.435H849.089ZM1022.09 170.227C1022.09 180.537 1020.14 189.309 1016.23 196.541C1012.35 203.774 1007.06 209.298 1000.35 213.114C993.67 216.9 986.16 218.793 977.82 218.793C969.418 218.793 961.877 216.884 955.199 213.068C948.52 209.252 943.242 203.728 939.364 196.495C935.487 189.263 933.548 180.507 933.548 170.227C933.548 159.917 935.487 151.146 939.364 143.913C943.242 136.681 948.52 131.172 955.199 127.386C961.877 123.57 969.418 121.662 977.82 121.662C986.16 121.662 993.67 123.57 1000.35 127.386C1007.06 131.172 1012.35 136.681 1016.23 143.913C1020.14 151.146 1022.09 159.917 1022.09 170.227ZM1001.83 170.227C1001.83 163.549 1000.83 157.917 998.825 153.331C996.855 148.745 994.07 145.268 990.469 142.898C986.868 140.528 982.652 139.343 977.82 139.343C972.988 139.343 968.771 140.528 965.17 142.898C961.57 145.268 958.769 148.745 956.768 153.331C954.799 157.917 953.814 163.549 953.814 170.227C953.814 176.906 954.799 182.538 956.768 187.124C958.769 191.709 961.57 195.187 965.17 197.557C968.771 199.927 972.988 201.112 977.82 201.112C982.652 201.112 986.868 199.927 990.469 197.557C994.07 195.187 996.855 191.709 998.825 187.124C1000.83 182.538 1001.83 176.906 1001.83 170.227ZM1036.9 217.5V122.955H1074.2C1081.34 122.955 1087.43 124.232 1092.48 126.786C1097.56 129.31 1101.42 132.895 1104.07 137.543C1106.75 142.159 1108.09 147.591 1108.09 153.839C1108.09 160.117 1106.73 165.518 1104.02 170.043C1101.31 174.536 1097.39 177.983 1092.25 180.384C1087.14 182.784 1080.96 183.984 1073.69 183.984H1048.72V167.919H1070.46C1074.28 167.919 1077.45 167.396 1079.97 166.349C1082.49 165.303 1084.37 163.733 1085.6 161.641C1086.86 159.548 1087.5 156.947 1087.5 153.839C1087.5 150.7 1086.86 148.053 1085.6 145.898C1084.37 143.744 1082.48 142.113 1079.92 141.005C1077.4 139.866 1074.22 139.297 1070.37 139.297H1056.89V217.5H1036.9ZM1087.96 174.474L1111.46 217.5H1089.39L1066.4 174.474H1087.96ZM1142.2 122.955V217.5H1122.21V122.955H1142.2ZM1174.94 217.5H1153.52L1186.16 122.955H1211.92L1244.51 217.5H1223.09L1199.41 144.56H1198.67L1174.94 217.5ZM1173.6 180.337H1224.2V195.941H1173.6V180.337Z" fill="white"/>
</svg>
